<?xml version="1.0" encoding="utf-8"?>
<!-- Generator: Adobe Illustrator 24.0.2, SVG Export Plug-In . SVG Version: 6.00 Build 0)  -->
<svg version="1.1" id="图层_1" xmlns="http://www.w3.org/2000/svg" xmlns:xlink="http://www.w3.org/1999/xlink" x="0px" y="0px"
	 viewBox="0 0 200 200" style="enable-background:new 0 0 200 200;" xml:space="preserve">
<style type="text/css">
	.st0{fill:#FFFFFF;}
</style>
<path class="st0" d="M100,12.5c-48.3,0-87.5,39.3-87.5,87.5s39.3,87.5,87.5,87.5s87.5-39.3,87.5-87.5S148.3,12.5,100,12.5z M100,175
	c-41.4,0-75-33.6-75-75s33.6-75,75-75s75,33.6,75,75S141.4,175,100,175z"/>
<path class="st0" d="M158.4,82.3L109,57.9c-2-1-4.9-0.7-6.4,0.7l-63.1,54.8c-1.6,1.4-1.2,3.3,0.7,4.2l49.4,24.4c2,1,4.9,0.7,6.4-0.7
	l63.1-54.8C160.7,85.2,160.4,83.3,158.4,82.3z M44.7,115.9c-1.2-0.6-1.4-1.8-0.5-2.6c1-0.9,2.8-1,4-0.4c1.2,0.6,1.4,1.8,0.5,2.6
	C47.7,116.3,45.9,116.5,44.7,115.9z M104.5,63.9c-1.2-0.6-1.4-1.8-0.5-2.6c1-0.9,2.8-1,4-0.4c1.2,0.6,1.4,1.8,0.5,2.6
	C107.6,64.3,105.8,64.5,104.5,63.9z M91.6,139.1c-1.2-0.6-1.4-1.8-0.5-2.6c1-0.9,2.8-1,4-0.4c1.2,0.6,1.4,1.8,0.5,2.6
	C94.6,139.5,92.8,139.7,91.6,139.1z M151.5,87c-1.2-0.6-1.4-1.8-0.5-2.6c1-0.9,2.8-1,4-0.4c1.2,0.6,1.4,1.8,0.5,2.6
	C154.5,87.4,152.7,87.6,151.5,87z"/>
</svg>
